# xmcd
#
# Track frame offsets: 
#        150
#        18078
#        32388
#        42865
#        50498
#        64492
#        79895
#        99561
#        107800
#        121911
#        131777
#        142819
#        157434
#        182997
#        193215
#        205642
#        216925
#        232024
#        241865
#        260421
#        274980
#        283528
#        296828
#
# Disc length: 4063 seconds
#
# Revision: 0
# Processed by: cddbd v1.5.1PL2 Copyright (c) Steve Scherf et al.
# Submitted via: ExactAudioCopy v0.95b4
#
DISCID=630fdd17
DTITLE=Marty Robbins - Gunfighter Ballads
DYEAR=1900
DGENRE=Country
TTITLE0=Big Iron
TTITLE1=Cool Water
TTITLE2=Billy the Kid
TTITLE3=A hundred and sixty Acres
TTITLE4=They're hanging me tonight
TTITLE5=The Strawberry Roan
TTITLE6=El Paso
TTITLE7=In the Valley
TTITLE8=The Master's call
TTITLE9=Running Gun
TTITLE10=The little Green Valley
TTITLE11=Utah Carol
TTITLE12=San Angelo
TTITLE13=Praire Fire
TTITLE14=The Streets of Laredo
TTITLE15=Song of the Bandit
TTITLE16=I've got no use for the Women
TTITLE17=Five Brothers
TTITLE18=Little Joe the Wrangler
TTITLE19=Ride, Cowboy ride
TTITLE20=This peaceful sod
TTITLE21=She was young and she was pretty
TTITLE22=My Love
EXTD=
EXTT0=
EXTT1=
EXTT2=
EXTT3=
EXTT4=
EXTT5=
EXTT6=
EXTT7=
EXTT8=
EXTT9=
EXTT10=
EXTT11=
EXTT12=
EXTT13=
EXTT14=
EXTT15=
EXTT16=
EXTT17=
EXTT18=
EXTT19=
EXTT20=
EXTT21=
EXTT22=
PLAYORDER=
